<svg xmlns="http://www.w3.org/2000/svg" viewBox="0 0 841.89 1190.55"><defs><style>.cls-1{fill:none;stroke:#fff;stroke-miterlimit:10;}.cls-2{fill:#fff;}</style></defs><title>Artboard 1 copy 2</title><g id="Layer_2" data-name="Layer 2"><polyline class="cls-1" points="113.37 327.35 113.37 694.83 149.03 694.83 149.03 920.31 482.82 920.31"/><path class="cls-1" d="M683.5,1147.06c162.74-135.15,255.06-819.71-146.18-936-216.1-62.6-392.66,9.06-423.73,114a5.09,5.09,0,0,0,1.92,5.61c18.39,13.08,123,79.47,237.91,51.25C576,327.35,499.52,920.78,438.5,1147.06Z"/><circle class="cls-2" cx="210.58" cy="471.64" r="11.95"/><circle class="cls-2" cx="170.94" cy="471.92" r="3.68"/><path class="cls-1" d="M254.82,471.64c-45.84,40.67-88.49,0-88.49,0S209,431,254.82,471.64Z"/><path class="cls-1" d="M254.82,773.75q99.22-10.84,166-63"/><path class="cls-1" d="M128.8,292.14q96.49,23.64,0,47.27"/><path class="cls-1" d="M147.57,268.3c53.33,6.88,46.76,36.62,0,81.7"/><path class="cls-1" d="M166.33,251.1c107.86,44.6,73.59,77.9,0,108.06"/><path class="cls-1" d="M185.1,237.61c54.66,58.45,75.68,107.57,0,129.87"/><path class="cls-1" d="M203.87,226.67c8.9,57.94,16.61,114.69,0,147.33"/><path class="cls-1" d="M222.64,217.65c-10.18,37.21-36.11,48.65,0,161.58"/><path class="cls-1" d="M241.41,210.19c9.9,73.37,27.78,159.29,0,173.46"/><path class="cls-1" d="M260.17,204c80.76,85.64,126.81,160.63,0,182.56"/><path class="cls-1" d="M278.94,199c-32.52,62.41-31.81,125.54,0,189.34"/><path class="cls-1" d="M297.71,195.06c-33.79,43.73-11.61,122.06,0,193.85"/><path class="cls-1" d="M316.48,192c-18.22,77.1-31,150.7,0,196"/><path class="cls-1" d="M335.25,189.8c-50.57,35.13-30,112.7,0,195.9"/><path class="cls-1" d="M354,188.41C543.74,265,507.82,327.24,354,382"/><path class="cls-1" d="M372.78,187.73c147.26,78,170.48,143.9,0,191.06"/><path class="cls-1" d="M391.55,187.73c-43.11,66.58-47.28,130.63,0,191.35"/><path class="cls-1" d="M410.32,188.67c-100.59,76.6-80.76,139.16,0,194.62"/><path class="cls-1" d="M429.09,190.13c45.84,82.38,57.63,153.94,0,203.44"/><path class="cls-1" d="M447.85,192.26c-39.8,69.44-38.21,142.6,0,219.06"/><path class="cls-1" d="M466.62,195c32.47,79,69.38,157.54,0,246.14"/><path class="cls-1" d="M485.39,198.44c59.08,151.42,91.39,279,0,296.36"/><line class="cls-1" x1="447.85" y1="1109.97" x2="447.85" y2="1147.06"/><line class="cls-1" x1="466.62" y1="1020.22" x2="466.62" y2="1147.06"/><line class="cls-1" x1="485.39" y1="901.39" x2="485.39" y2="1147.06"/><line class="cls-1" x1="504.16" y1="202.47" x2="504.16" y2="1147.06"/><path class="cls-1" d="M522.93,207.12c-297.94,171.93-80.08,585.33,0,939.94"/><path class="cls-1" d="M541.69,212.41c-29.57,248.47-20.53,579.32,0,934.66"/><path class="cls-1" d="M560.46,218.63c89.16,339.16,111,655.93,0,928.43"/><path class="cls-1" d="M579.23,226.39c31.49,337.76,39.71,652.71,0,920.67"/><line class="cls-1" x1="598" y1="234.7" x2="598" y2="1147.06"/><path class="cls-1" d="M616.77,244.81c-90.13,331-110.08,638.43,0,902.25"/><path class="cls-1" d="M635.54,256.54c-42.32,181-20.5,537.56,0,890.53"/><path class="cls-1" d="M654.3,270.1c-717.3,447.17-3,610.09,0,877"/><path class="cls-1" d="M673.07,285.78c72.07,311.3,78.08,600.42,0,861.28"/><path class="cls-1" d="M691.84,304c-78.82,142.26-27.22,510,0,835.63"/><path class="cls-1" d="M710.61,325.17c-102,266.37-98.21,530.82,0,793.57"/><path class="cls-1" d="M729.38,350.12c90.94,373.64,23.25,526.79,0,741.69"/><path class="cls-1" d="M748.14,379.93c-32.91,281.2-68.76,567.32,0,677.94"/><path class="cls-1" d="M766.91,416.46c35.18,230.91,43.5,437.9,0,598.74"/><path class="cls-1" d="M785.68,463.32c-112.06,90.37-43.77,301.94,0,497"/><line class="cls-1" x1="804.45" y1="529.85" x2="804.45" y2="884.08"/></g></svg>