<svg xmlns="http://www.w3.org/2000/svg" viewBox="0 0 841.89 1190.55"><defs><style>.cls-1{fill:none;stroke:#fff;stroke-miterlimit:10;}.cls-2{fill:#fff;}</style></defs><title>Artboard 1 copy 2</title><g id="Layer_2" data-name="Layer 2"><polyline class="cls-1" points="20.45 215.3 20.45 633.01 60.99 633.01 60.99 889.31 440.4 889.31"/><path class="cls-1" d="M668.51,1147.06C853.5,993.44,958.44,215.3,502.35,83.17,256.71,12,56,93.47,20.7,212.8a5.79,5.79,0,0,0,2.18,6.37C43.78,234,162.64,309.5,293.31,277.42c253-62.12,166.08,612.43,96.72,869.64Z"/><circle class="cls-2" cx="130.94" cy="379.32" r="13.58"/><circle class="cls-2" cx="85.9" cy="379.64" r="4.19"/><path class="cls-1" d="M181.24,379.32c-52.11,46.23-100.58,0-100.58,0S129.13,333.09,181.24,379.32Z"/><path class="cls-1" d="M181.24,722.72Q294,710.4,369.93,651.11"/><path class="cls-1" d="M38,175.27Q147.66,202.14,38,229"/><path class="cls-1" d="M59.32,148.17c60.63,7.82,53.16,41.62,0,92.87"/><path class="cls-1" d="M80.65,128.63c122.6,50.7,83.65,88.54,0,122.83"/><path class="cls-1" d="M102,113.3c62.13,66.44,86,122.27,0,147.62"/><path class="cls-1" d="M123.32,100.86c10.12,65.86,18.88,130.37,0,167.47"/><path class="cls-1" d="M144.65,90.61c-11.57,42.29-41,55.3,0,183.67"/><path class="cls-1" d="M166,82.13c11.25,83.4,31.58,181.06,0,197.17"/><path class="cls-1" d="M187.32,75.14c91.79,97.34,144.15,182.58,0,207.51"/><path class="cls-1" d="M208.65,69.45c-37,70.94-36.15,142.7,0,215.22"/><path class="cls-1" d="M230,64.92c-38.41,49.7-13.2,138.74,0,220.35"/><path class="cls-1" d="M251.32,61.45c-20.71,87.64-35.26,171.31,0,222.83"/><path class="cls-1" d="M272.66,59c-57.49,39.94-34.11,128.11,0,222.68"/><path class="cls-1" d="M294,57.37c215.65,87,174.83,157.8,0,220"/><path class="cls-1" d="M315.32,56.6c167.39,88.62,193.78,163.57,0,217.18"/><path class="cls-1" d="M336.66,56.6c-49,75.68-53.74,148.49,0,217.5"/><path class="cls-1" d="M358,57.66c-114.34,87.07-91.8,158.18,0,221.22"/><path class="cls-1" d="M379.32,59.33c52.11,93.65,65.51,175,0,231.25"/><path class="cls-1" d="M400.66,61.74c-45.24,78.93-43.43,162.09,0,249"/><path class="cls-1" d="M422,64.89c36.91,89.78,78.87,179.08,0,279.79"/><path class="cls-1" d="M443.32,68.76c67.15,172.11,103.88,317.13,0,336.88"/><line class="cls-1" x1="400.66" y1="1104.9" x2="400.66" y2="1147.06"/><line class="cls-1" x1="421.99" y1="1002.88" x2="421.99" y2="1147.06"/><line class="cls-1" x1="443.32" y1="867.81" x2="443.32" y2="1147.06"/><line class="cls-1" x1="464.66" y1="73.35" x2="464.66" y2="1147.06"/><path class="cls-1" d="M486,78.64C147.33,274.07,395,744,486,1147.06"/><path class="cls-1" d="M507.33,84.64c-33.62,282.44-23.33,658.51,0,1062.42"/><path class="cls-1" d="M528.66,91.72c101.35,385.52,126.22,745.59,0,1055.34"/><path class="cls-1" d="M550,100.54c35.79,383.93,45.14,741.94,0,1046.52"/><line class="cls-1" x1="571.33" y1="109.99" x2="571.33" y2="1147.06"/><path class="cls-1" d="M592.66,121.48c-102.45,376.23-125.13,725.7,0,1025.58"/><path class="cls-1" d="M614,134.8c-48.1,205.72-23.3,611,0,1012.26"/><path class="cls-1" d="M635.33,150.22c-815.35,508.3-3.41,693.48,0,996.84"/><path class="cls-1" d="M656.66,168.05c81.92,353.86,88.75,682.49,0,979"/><path class="cls-1" d="M678,188.72c-89.6,161.7-30.94,579.74,0,949.85"/><path class="cls-1" d="M699.33,212.82c-115.93,302.78-111.63,603.38,0,902"/><path class="cls-1" d="M720.66,241.18c103.37,424.72,26.43,598.8,0,843.08"/><path class="cls-1" d="M742,275.07c-37.41,319.63-78.16,644.87,0,770.61"/><path class="cls-1" d="M763.33,316.59c40,262.47,49.45,497.76,0,680.59"/><path class="cls-1" d="M784.66,369.85c-127.38,102.72-49.75,343.22,0,565"/><line class="cls-1" x1="806" y1="445.48" x2="806" y2="848.13"/></g></svg>